<svg xmlns="http://www.w3.org/2000/svg" xmlns:xlink="http://www.w3.org/1999/xlink" x="0px" y="0px"
	 viewBox="0 0 170 28" style="enable-background:new 0 0 170 28;" xml:space="preserve">
<style type="text/css">
	.logo-light-color { fill:#FFFFFF; }
</style>
	<path class="logo-light-color" d="M146.9,1.5h19.8c1.5,0,2.7,1.2,2.7,2.7v19.8c0,1.5-1.2,2.7-2.7,2.7h-9.9c-5.2,0-5.7-5.6-0.7-10.7l2.3-2.3
		l3.5,8.2l0.6-1.1l-2-9.2l2.6-2.6c0.7-0.6,1.2-1.5,1.2-2.4l0,0c-0.9,0.1-1.8,0.5-2.4,1.2l-2.6,2.6l-9.2-2L149.1,9l8.2,3.5l-2.3,2.3
		c-5.9,5.9-10.8,4.5-10.8-0.8V4.1C144.3,2.6,145.5,1.5,146.9,1.5"/>
	<path class="logo-light-color" d="M24.5,26.1h-5.2l-2.1-5.4H7.7l-2,5.4H0.6L9.9,2.4H15L24.5,26.1z M15.7,16.7l-3.3-8.8l-3.2,8.8H15.7z"/>
	<path class="logo-light-color" d="M30.3,2.4h8.8c2,0,3.5,0.2,4.5,0.5C45,3.2,46.2,3.9,47.2,5c1,1,1.8,2.3,2.3,3.8c0.5,1.5,0.8,3.4,0.8,5.6
		c0,2-0.2,3.6-0.7,5.1c-0.6,1.7-1.4,3.1-2.5,4.2c-0.8,0.8-2,1.4-3.4,1.9c-1.1,0.3-2.5,0.5-4.2,0.5h-9V2.4z M35.1,6.4v15.7h3.6
		c1.3,0,2.3-0.1,2.9-0.2c0.8-0.2,1.4-0.5,1.9-1c0.5-0.5,0.9-1.2,1.3-2.3c0.3-1.1,0.5-2.5,0.5-4.4c0-1.8-0.2-3.2-0.5-4.2
		c-0.3-1-0.8-1.8-1.4-2.3c-0.6-0.6-1.3-0.9-2.2-1.1c-0.7-0.2-2-0.2-3.9-0.2H35.1z"/>
	<path class="logo-light-color" d="M63.7,26.1L55.2,2.4h5.2l6,17.6l5.8-17.6h5.1l-8.5,23.8H63.7z"/>
	<path class="logo-light-color" d="M83.1,26.1V2.4h17.6v4H87.9v5.3h11.9v4H87.9v6.5h13.3v4H83.1z"/>
	<path class="logo-light-color" d="M108.6,26.1V2.4h4.7l9.7,15.9V2.4h4.5v23.8h-4.8l-9.6-15.5v15.5H108.6z"/>
</svg>
